<svg xmlns="http://www.w3.org/2000/svg" width="24" height="24" viewBox="0 0 48 48">
  <g>
    <path fill="#4285F4" d="M43.6 20.5H42V20H24v8h11.3C34.7 32.1 30.1 35 24 35c-6.1 0-11.3-4.9-11.3-11S17.9 13 24 13c2.6 0 5 .8 6.9 2.3l6.5-6.5C34.2 5.5 29.4 3.5 24 3.5 12.4 3.5 3 12.9 3 24.5S12.4 45.5 24 45.5c11.6 0 21-9.4 21-21 0-1.4-.1-2.7-.4-4z"/>
    <path fill="#34A853" d="M6.3 14.1l6.6 4.8C14.5 16.1 18.9 13 24 13c2.6 0 5 .8 6.9 2.3l6.5-6.5C34.2 5.5 29.4 3.5 24 3.5c-7.2 0-13.4 4.1-16.7 10.6z"/>
    <path fill="#FBBC05" d="M24 45.5c5.4 0 10.2-1.8 13.9-4.9l-6.4-5.2C29.9 36.2 27.1 37 24 37c-6.1 0-11.3-4.9-11.3-11 0-1.7.4-3.3 1.1-4.7l-6.6-5.1C4.1 19.1 3 21.7 3 24.5c0 11.6 9.4 21 21 21z"/>
    <path fill="#EA4335" d="M43.6 20.5H42V20H24v8h11.3c-1.2 3.2-4.2 5.5-7.3 6.3l6.4 5.2c3.7-3.4 6-8.4 6-14.5 0-1.4-.1-2.7-.4-4z"/>
  </g>
</svg> 